<svg class="svg-icon" style="width: 1em;height: 1em;vertical-align: middle;fill: currentColor;overflow: hidden;" viewBox="0 0 1024 1024" version="1.1" xmlns="http://www.w3.org/2000/svg"><path d="M578.33 870.33H198c-20.57 0-37.31-15.16-37.31-33.8V185.86c0-18.63 16.74-33.79 37.31-33.79h534.23c20.58 0 37.32 15.16 37.32 33.79v230.59a24 24 0 1 0 48 0V185.86c0-45.1-38.27-81.79-85.32-81.79H198c-47 0-85.31 36.69-85.31 81.79v650.67c0 45.1 38.27 81.8 85.31 81.8h380.33a24 24 0 0 0 0-48z" fill="#677787" /><path d="M553.47 488.45a24 24 0 0 0-24-24H252a24 24 0 1 0 0 48h277.5a24 24 0 0 0 23.97-24zM696.56 307.21a24 24 0 0 0-24-24H252a24 24 0 1 0 0 48h420.56a24 24 0 0 0 24-24zM257.45 638.94a24 24 0 0 0 0 48h203.94a24 24 0 0 0 0-48zM717.83 463.55c-106.66 0-193.43 86.82-193.43 193.52 0 35.86 13.82 74 42.25 116.63 26.82 40.22 66.06 83.57 119.94 132.51a46.34 46.34 0 0 0 62.67 0c53.84-49 93-92.34 119.86-132.56 28.42-42.62 42.23-80.75 42.23-116.56 0-106.72-86.81-193.54-193.52-193.54z m0.09 406.26C621.35 781.94 572.4 710.37 572.4 657.07c0-80.24 65.24-145.52 145.43-145.52s145.52 65.28 145.52 145.52c0 53.19-48.92 124.76-145.43 212.74z" fill="#677787" /><path d="M713.72 588a77.7 77.7 0 1 0 77.7 77.7 77.79 77.79 0 0 0-77.7-77.7z m0 107.4a29.7 29.7 0 1 1 29.7-29.7 29.73 29.73 0 0 1-29.7 29.7z" fill="#677787" /></svg>
